<?xml version="1.0" standalone="no"?>
<!DOCTYPE svg PUBLIC "-//W3C//DTD SVG 20010904//EN"
 "http://www.w3.org/TR/2001/REC-SVG-20010904/DTD/svg10.dtd">
<svg version="1.0" xmlns="http://www.w3.org/2000/svg"
 width="310.000000pt" height="310.000000pt" viewBox="0 0 310.000000 310.000000"
 preserveAspectRatio="xMidYMid meet">
<metadata>
Created by potrace 1.11, written by Peter Selinger 2001-2013
</metadata>
<g transform="translate(0.000000,310.000000) scale(0.100000,-0.100000)"
fill="#000000" stroke="none">
<path d="M975 2476 c-89 -33 -119 -51 -172 -104 -66 -66 -163 -178 -163 -187
0 -5 -6 -16 -14 -24 -25 -30 -50 -126 -52 -206 -7 -261 199 -466 464 -463 l83
1 77 -76 c56 -56 85 -77 103 -77 20 0 74 -49 247 -220 l221 -220 -47 -35 c-29
-23 -51 -33 -61 -29 -9 4 -40 8 -70 10 -60 3 -114 -23 -148 -72 -10 -14 -40
-47 -66 -73 -90 -88 -93 -195 -6 -275 l43 -41 1 -190 0 -190 125 -3 125 -3 0
246 1 245 37 31 c44 36 67 77 69 122 1 27 11 39 65 81 l63 48 18 -21 c24 -29
90 -59 124 -56 24 2 41 -9 91 -58 80 -77 116 -93 158 -72 16 9 47 35 68 58
162 176 156 167 145 218 -3 15 -34 55 -70 90 -57 57 -64 68 -64 104 0 22 -6
52 -14 67 -8 14 -152 166 -322 337 -228 231 -309 319 -312 339 -2 17 -28 53
-75 100 l-72 73 -1 82 c-1 93 -5 113 -30 177 -55 141 -163 238 -309 279 -66
18 -192 12 -260 -13z"/>
</g>
</svg>
